<svg xmlns="http://www.w3.org/2000/svg" xmlns:xlink="http://www.w3.org/1999/xlink" viewBox="0 0 128 128"><defs><linearGradient id="linear-gradient" x1="15" y1="39.5" x2="113" y2="39.5" gradientUnits="userSpaceOnUse"><stop offset="0.3" stop-color="#292d33" stop-opacity="0"/><stop offset="1" stop-color="#292d33" stop-opacity="0.15"/></linearGradient></defs><title>icon-128px-clock_1</title><g id="BG"><rect width="128" height="128" style="fill:none"/></g><g id="art"><circle cx="64" cy="64" r="49" style="fill:#dfe1e5"/><path d="M64,15A49,49,0,0,0,15,64h98A49,49,0,0,0,64,15Z" style="fill:url(#linear-gradient)"/><circle cx="64" cy="64" r="43" style="fill:#dfe1e5"/><circle cx="64" cy="64" r="41" style="fill:#eff0f2"/><circle cx="64" cy="64" r="39" style="fill:#eff0f2"/><rect x="62" y="25" width="4" height="5" rx="2" ry="2" style="fill:#dfe1e5"/><rect x="62" y="98" width="4" height="5" rx="2" ry="2" style="fill:#dfe1e5"/><rect x="98.5" y="61.5" width="4" height="5" rx="2" ry="2" transform="translate(164.5 -36.5) rotate(90)" style="fill:#dfe1e5"/><rect x="25.5" y="61.5" width="4" height="5" rx="2" ry="2" transform="translate(91.5 36.5) rotate(90)" style="fill:#dfe1e5"/><rect x="62" y="32" width="4" height="38" rx="2" ry="2" style="fill:#4285f4"/><rect x="58" y="62" width="27" height="4" rx="2" ry="2" style="fill:#34a853"/><circle cx="64" cy="64" r="3" style="fill:#292d33"/></g></svg>