<svg xmlns="http://www.w3.org/2000/svg" viewBox="0 0 128 128"><title>icon-128px-list_2</title><g id="BG"><rect width="128" height="128" style="fill:none"/></g><g id="art"><path id="_Path_" data-name="&lt;Path&gt;" d="M110,87H18a2,2,0,0,1-2-2V21h96V85A2,2,0,0,1,110,87Z" style="fill:#dfe1e5"/><path id="_Rectangle_" data-name="&lt;Rectangle&gt;" d="M17.34,14h93.32A1.34,1.34,0,0,1,112,15.34V21a0,0,0,0,1,0,0H16a0,0,0,0,1,0,0V15.34A1.34,1.34,0,0,1,17.34,14Z" style="fill:#eff0f2;opacity:0.76"/><circle id="_Path_2" data-name="&lt;Path&gt;" cx="19.5" cy="17.5" r="1.5" style="fill:#f44336"/><circle id="_Path_3" data-name="&lt;Path&gt;" cx="23.5" cy="17.5" r="1.5" style="fill:#f4b402"/><circle id="_Path_4" data-name="&lt;Path&gt;" cx="27.5" cy="17.5" r="1.5" style="fill:#109d58"/><polygon points="102 83 26 83 26.01 58 101.99 58 102 83" style="fill:#fff"/><polygon points="102 58 26 58 26.01 32.13 101.99 32.13 102 58" style="fill:#4285f4"/><line x1="44" y1="45" x2="84" y2="45" style="fill:none;stroke:#fff;stroke-miterlimit:10;stroke-width:2px"/><polygon points="102 113 26 113 26.01 87.13 101.99 87.13 102 113" style="fill:#eff0f2"/><line x1="44" y1="100" x2="84" y2="100" style="fill:none;stroke:#fff;stroke-miterlimit:10;stroke-width:2px"/><line x1="44" y1="67" x2="84" y2="67" style="fill:none;stroke:#dfe1e5;stroke-miterlimit:10;stroke-width:2px"/><line x1="44" y1="73" x2="84" y2="73" style="fill:none;stroke:#dfe1e5;stroke-miterlimit:10;stroke-width:2px"/></g></svg>