<svg xmlns="http://www.w3.org/2000/svg" xmlns:xlink="http://www.w3.org/1999/xlink" viewBox="0 0 128 128"><defs><linearGradient id="linear-gradient" x1="24" y1="69.75" x2="104" y2="69.75" gradientUnits="userSpaceOnUse"><stop offset="0" stop-color="#959ca5" stop-opacity="0.5"/><stop offset="0.16" stop-color="#a1a7af" stop-opacity="0.58"/><stop offset="0.51" stop-color="#bec2c9" stop-opacity="0.78"/><stop offset="0.82" stop-color="#dcdee3" stop-opacity="0.98"/><stop offset="1" stop-color="#959ca5" stop-opacity="0.29"/></linearGradient><clipPath id="clip-path"><rect id="_Rectangle_" data-name="&lt;Rectangle&gt;" x="24.01" y="19.04" width="79.98" height="98.7" rx="5.61" ry="5.61" style="fill:none"/></clipPath><linearGradient id="linear-gradient-2" x1="460.62" y1="-4340.91" x2="563.95" y2="-4340.91" gradientTransform="matrix(0.02, 1, -1, 0.02, -4245.8, -344.68)" gradientUnits="userSpaceOnUse"><stop offset="0" stop-color="#fff"/><stop offset="0.51" stop-color="#959ca5"/><stop offset="1" stop-color="#fff"/></linearGradient><linearGradient id="linear-gradient-3" x1="391.57" y1="-4391.92" x2="494.85" y2="-4391.92" gradientTransform="matrix(0, 1, -1, 0, -4294.33, -378.05)" xlink:href="#linear-gradient-2"/><linearGradient id="linear-gradient-4" x1="391.57" y1="-4384.74" x2="494.85" y2="-4384.74" gradientTransform="matrix(0, 1, -1, 0, -4294.33, -378.05)" xlink:href="#linear-gradient-2"/><linearGradient id="linear-gradient-5" x1="391.58" y1="-4378.69" x2="494.85" y2="-4378.69" gradientTransform="matrix(0, 1, -1, 0, -4294.33, -378.05)" xlink:href="#linear-gradient-2"/><linearGradient id="linear-gradient-6" x1="391.58" y1="-4371.56" x2="494.85" y2="-4371.56" gradientTransform="matrix(0, 1, -1, 0, -4294.33, -378.05)" xlink:href="#linear-gradient-2"/><linearGradient id="linear-gradient-7" x1="391.58" y1="-4362.28" x2="494.85" y2="-4362.28" gradientTransform="matrix(0, 1, -1, 0, -4294.33, -378.05)" xlink:href="#linear-gradient-2"/><linearGradient id="linear-gradient-8" x1="391.58" y1="-4352.31" x2="494.85" y2="-4352.31" gradientTransform="matrix(0, 1, -1, 0, -4294.33, -378.05)" xlink:href="#linear-gradient-2"/><linearGradient id="linear-gradient-9" x1="391.58" y1="-4345.09" x2="494.86" y2="-4345.09" gradientTransform="matrix(0, 1, -1, 0, -4294.33, -378.05)" xlink:href="#linear-gradient-2"/><linearGradient id="linear-gradient-10" x1="391.58" y1="-4335.33" x2="494.86" y2="-4335.33" gradientTransform="matrix(0, 1, -1, 0, -4294.33, -378.05)" xlink:href="#linear-gradient-2"/><linearGradient id="linear-gradient-11" x1="391.59" y1="-4324.37" x2="494.86" y2="-4324.37" gradientTransform="matrix(0, 1, -1, 0, -4294.33, -378.05)" xlink:href="#linear-gradient-2"/><linearGradient id="linear-gradient-12" x1="352.98" y1="-4340.07" x2="456.34" y2="-4340.07" gradientTransform="matrix(-0.01, 1, -1, -0.01, -4313.04, -379.23)" xlink:href="#linear-gradient-2"/><linearGradient id="linear-gradient-13" x1="391.54" y1="-4327.94" x2="494.87" y2="-4327.94" gradientTransform="matrix(0, 1, -1, 0, -4294.33, -378.05)" gradientUnits="userSpaceOnUse"><stop offset="0" stop-color="#fff"/><stop offset="0.51" stop-color="#dfe1e5"/><stop offset="1" stop-color="#fff"/></linearGradient><linearGradient id="linear-gradient-14" x1="391.63" y1="-4321.08" x2="494.86" y2="-4321.08" xlink:href="#linear-gradient-13"/><linearGradient id="linear-gradient-15" x1="391.63" y1="-4331.74" x2="494.86" y2="-4331.74" xlink:href="#linear-gradient-13"/><linearGradient id="linear-gradient-16" x1="391.63" y1="-4339.28" x2="494.86" y2="-4339.28" xlink:href="#linear-gradient-13"/><linearGradient id="linear-gradient-17" x1="391.63" y1="-4343.72" x2="494.86" y2="-4343.72" xlink:href="#linear-gradient-13"/><linearGradient id="linear-gradient-18" x1="391.67" y1="-4355.75" x2="494.9" y2="-4355.75" xlink:href="#linear-gradient-13"/><linearGradient id="linear-gradient-19" x1="391.66" y1="-4366.92" x2="494.9" y2="-4366.92" xlink:href="#linear-gradient-13"/><linearGradient id="linear-gradient-20" x1="391.62" y1="-4371.32" x2="494.85" y2="-4371.32" xlink:href="#linear-gradient-13"/><linearGradient id="linear-gradient-21" x1="391.62" y1="-4381.98" x2="494.85" y2="-4381.98" xlink:href="#linear-gradient-13"/><linearGradient id="linear-gradient-22" x1="391.31" y1="-4388.33" x2="494.54" y2="-4388.33" xlink:href="#linear-gradient-13"/><linearGradient id="linear-gradient-23" x1="391.5" y1="-4397.02" x2="494.85" y2="-4397.02" xlink:href="#linear-gradient-13"/><linearGradient id="linear-gradient-24" x1="64.01" y1="111.44" x2="64.01" y2="107.5" gradientUnits="userSpaceOnUse"><stop offset="0.09" stop-color="#292d33" stop-opacity="0"/><stop offset="1" stop-color="#292d33" stop-opacity="0.2"/></linearGradient><linearGradient id="linear-gradient-25" x1="87.29" y1="105.19" x2="87.29" y2="37.4" gradientUnits="userSpaceOnUse"><stop offset="0" stop-color="#292d33" stop-opacity="0"/><stop offset="0.21" stop-color="#292d33" stop-opacity="0.1"/><stop offset="0.86" stop-color="#292d33" stop-opacity="0.14"/><stop offset="1" stop-color="#292d33" stop-opacity="0"/></linearGradient><linearGradient id="linear-gradient-26" x1="-2320.55" y1="-4347.34" x2="-2320.55" y2="-4354.37" gradientTransform="matrix(0, -1, -1, 0, -4257.21, -2282.41)" gradientUnits="userSpaceOnUse"><stop offset="0" stop-color="#959ca5"/><stop offset="0.26" stop-color="#b3b8bf"/><stop offset="0.58" stop-color="#d3d6db"/><stop offset="0.76" stop-color="#dfe1e5"/><stop offset="1" stop-color="#959ca5" stop-opacity="0.4"/></linearGradient></defs><title>icon-128px-clipboard copy 2</title><g style="isolation:isolate"><g id="BG"><rect width="128" height="128" style="fill:none"/></g><g id="art"><g id="_Group_" data-name="&lt;Group&gt;"><rect id="_Rectangle_2" data-name="&lt;Rectangle&gt;" x="24.01" y="20.4" width="79.98" height="98.7" rx="5.61" ry="5.61" style="fill:url(#linear-gradient)"/></g><g id="_Group_2" data-name="&lt;Group&gt;"><rect id="_Rectangle_3" data-name="&lt;Rectangle&gt;" x="24.01" y="19.04" width="79.98" height="98.7" rx="5.61" ry="5.61" style="fill:#dfe1e5"/><g style="mix-blend-mode:overlay"><g style="clip-path:url(#clip-path)"><line x1="105.37" y1="120.29" x2="105.92" y2="17.07" style="fill:none;stroke-linecap:round;stroke-miterlimit:10;stroke-width:0.15323633370502163px;stroke:url(#linear-gradient-2)"/><line x1="97.83" y1="17.15" x2="96.63" y2="120.27" style="fill:none;stroke-linecap:round;stroke-miterlimit:10;stroke-width:0.15323633370502163px;stroke:url(#linear-gradient-3)"/><line x1="89.33" y1="120.27" x2="90.76" y2="17.15" style="fill:none;stroke-linecap:round;stroke-miterlimit:10;stroke-width:0.15323633370502163px;stroke:url(#linear-gradient-4)"/><line x1="81.6" y1="17.14" x2="86.39" y2="120.26" style="fill:none;stroke-linecap:round;stroke-miterlimit:10;stroke-width:0.15323633370502163px;stroke:url(#linear-gradient-5)"/><line x1="80.82" y1="120.26" x2="72.91" y2="17.13" style="fill:none;stroke-linecap:round;stroke-miterlimit:10;stroke-width:0.15323633370502163px;stroke:url(#linear-gradient-6)"/><line x1="67.4" y1="17.13" x2="67.77" y2="120.25" style="fill:none;stroke-linecap:round;stroke-miterlimit:10;stroke-width:0.15323633370502163px;stroke:url(#linear-gradient-7)"/><line x1="59.86" y1="120.25" x2="55.37" y2="17.12" style="fill:none;stroke-linecap:round;stroke-miterlimit:10;stroke-width:0.15323633370502163px;stroke:url(#linear-gradient-8)"/><line x1="51.59" y1="17.12" x2="49.2" y2="120.24" style="fill:none;stroke-linecap:round;stroke-miterlimit:10;stroke-width:0.15323633370502163px;stroke:url(#linear-gradient-9)"/><line x1="41.42" y1="120.24" x2="39.86" y2="17.12" style="fill:none;stroke-linecap:round;stroke-miterlimit:10;stroke-width:0.15323633370502163px;stroke:url(#linear-gradient-10)"/><line x1="31.11" y1="17.11" x2="28.24" y2="120.23" style="fill:none;stroke-linecap:round;stroke-miterlimit:10;stroke-width:0.15323633370502163px;stroke:url(#linear-gradient-11)"/><line x1="23.1" y1="120.33" x2="22.48" y2="17.1" style="fill:none;stroke-linecap:round;stroke-miterlimit:10;stroke-width:0.15323633370502163px;stroke:url(#linear-gradient-12)"/><line x1="35.19" y1="17.07" x2="31.3" y2="120.24" style="fill:none;stroke-linecap:round;stroke-miterlimit:10;stroke-width:0.15323633370502163px;stroke:url(#linear-gradient-13)"/><line x1="25.79" y1="120.23" x2="26.98" y2="17.15" style="fill:none;stroke-linecap:round;stroke-miterlimit:10;stroke-width:0.15323633370502163px;stroke:url(#linear-gradient-14)"/><line x1="37.76" y1="17.16" x2="36.33" y2="120.24" style="fill:none;stroke-linecap:round;stroke-miterlimit:10;stroke-width:0.15323633370502163px;stroke:url(#linear-gradient-15)"/><line x1="46.99" y1="120.24" x2="42.19" y2="17.16" style="fill:none;stroke-linecap:round;stroke-miterlimit:10;stroke-width:0.15323633370502163px;stroke:url(#linear-gradient-16)"/><line x1="45.07" y1="17.16" x2="52.98" y2="120.25" style="fill:none;stroke-linecap:round;stroke-miterlimit:10;stroke-width:0.15323633370502163px;stroke:url(#linear-gradient-17)"/><line x1="61.24" y1="120.29" x2="60.88" y2="17.21" style="fill:none;stroke-linecap:round;stroke-miterlimit:10;stroke-width:0.15323633370502163px;stroke:url(#linear-gradient-18)"/><line x1="69.98" y1="17.22" x2="74.47" y2="120.3" style="fill:none;stroke-linecap:round;stroke-miterlimit:10;stroke-width:0.15323633370502163px;stroke:url(#linear-gradient-19)"/><line x1="75.43" y1="120.26" x2="77.82" y2="17.18" style="fill:none;stroke-linecap:round;stroke-miterlimit:10;stroke-width:0.15323633370502163px;stroke:url(#linear-gradient-20)"/><line x1="86.51" y1="17.19" x2="88.07" y2="120.27" style="fill:none;stroke-linecap:round;stroke-miterlimit:10;stroke-width:0.15323633370502163px;stroke:url(#linear-gradient-21)"/><line x1="92.2" y1="119.96" x2="95.07" y2="16.89" style="fill:none;stroke-linecap:round;stroke-miterlimit:10;stroke-width:0.15323633370502163px;stroke:url(#linear-gradient-22)"/><line x1="101.36" y1="17.08" x2="103.28" y2="120.27" style="fill:none;stroke-linecap:round;stroke-miterlimit:10;stroke-width:0.15323633370502163px;stroke:url(#linear-gradient-23)"/></g></g></g><rect id="_Rectangle_4" data-name="&lt;Rectangle&gt;" x="29.47" y="107.5" width="69.08" height="3.94" style="fill:url(#linear-gradient-24)"/><g id="_Group_3" data-name="&lt;Group&gt;"><path id="_Rectangle_5" data-name="&lt;Rectangle&gt;" d="M29.47,67H98.55a0,0,0,0,1,0,0v41.3a.75.75,0,0,1-.75.75H30.22a.75.75,0,0,1-.75-.75V67A0,0,0,0,1,29.47,67Z" style="fill:#eff0f2"/><path id="_Rectangle_6" data-name="&lt;Rectangle&gt;" d="M30.22,24.9H97.8a.75.75,0,0,1,.75.75V67a0,0,0,0,1,0,0H29.47a0,0,0,0,1,0,0V25.65A.75.75,0,0,1,30.22,24.9Z" style="fill:#fff"/></g><path d="M90.81,97.33l-.09-44.79h0L90.7,38a.61.61,0,0,0-.61-.61h-5.7a.61.61,0,0,0-.61.61l.12,59.32,3.46,7.85h.5l3-7.86Z" style="fill:url(#linear-gradient-25)"/><g id="_Group_4" data-name="&lt;Group&gt;"><rect id="_Path_" data-name="&lt;Path&gt;" x="85.88" y="50.64" width="7.01" height="45.34" transform="translate(-0.14 0.17) rotate(-0.11)" style="fill:#fabb05"/><rect id="_Rectangle_7" data-name="&lt;Rectangle&gt;" x="85.82" y="41.72" width="7.01" height="8.92" transform="translate(-0.09 0.17) rotate(-0.11)" style="fill:url(#linear-gradient-26)"/><path id="_Rectangle_8" data-name="&lt;Rectangle&gt;" d="M86.43,35.31H92.2a.62.62,0,0,1,.62.62v5.8a0,0,0,0,1,0,0h-7a0,0,0,0,1,0,0v-5.8A.62.62,0,0,1,86.43,35.31Z" transform="translate(-0.07 0.17) rotate(-0.11)" style="fill:#e4594e"/><g id="_Group_5" data-name="&lt;Group&gt;"><polygon id="_Path_2" data-name="&lt;Path&gt;" points="92.94 96 85.93 96.01 88 101.79 90.88 101.78 92.94 96" style="fill:#fddf87"/><path id="_Path_3" data-name="&lt;Path&gt;" d="M90.88,101.78H88l1,2.15a.44.44,0,0,0,.79,0Z" style="fill:#292d33"/></g><circle id="_Path_4" data-name="&lt;Path&gt;" cx="87.93" cy="46.31" r="0.68" transform="translate(-0.09 0.16) rotate(-0.11)" style="fill:#676c72"/><circle id="_Path_5" data-name="&lt;Path&gt;" cx="91.35" cy="46.3" r="0.68" transform="translate(-0.09 0.17) rotate(-0.11)" style="fill:#676c72"/><rect id="_Path_6" data-name="&lt;Path&gt;" x="89.38" y="50.64" width="3.51" height="45.34" transform="translate(-0.14 0.17) rotate(-0.11)" style="fill:#fcd35c"/></g><path d="M56.84,11.93a7.18,7.18,0,0,1,14.35.25l-.16,9-14.35-.25Z" style="fill:#cdd0d5"/><path d="M46.36,15.89H81.64a1.92,1.92,0,0,1,1.92,1.92v9.86a.66.66,0,0,1-.66.66H45.09a.66.66,0,0,1-.66-.66V17.82A1.92,1.92,0,0,1,46.36,15.89Z" style="fill:#eff0f2"/><circle cx="64" cy="12.18" r="3.06" style="fill:#fff"/></g></g></svg>