<svg xmlns="http://www.w3.org/2000/svg" viewBox="0 0 128 128"><title>icon-128px-sliders_2</title><g id="BG"><rect width="128" height="128" style="fill:none"/></g><g id="art"><path d="M123.89,33h-1.31l.25,56H126V35.12A2.11,2.11,0,0,0,123.89,33Z" style="fill:#959ca5"/><path d="M50.57,33h72A1.44,1.44,0,0,1,124,34.44V89a0,0,0,0,1,0,0H49a0,0,0,0,1,0,0V34.57A1.57,1.57,0,0,1,50.57,33Z" style="fill:#292d33"/><path d="M126,89H50v7h74.37A1.85,1.85,0,0,0,126,94Z" style="fill:#dfe1e5"/><path d="M13.6,89H89a0,0,0,0,1,0,0v5a2,2,0,0,1-2,2H15a2,2,0,0,1-2-2V89.6a.6.6,0,0,1,.6-.6Z" style="fill:#babfc5"/><rect x="54" y="38" width="65" height="46" rx="1.09" ry="1.09" style="fill:#9fc1f9"/><path d="M56.48,92h-11A2.79,2.79,0,0,1,43,89H59A2.79,2.79,0,0,1,56.48,92Z" style="fill:#eff0f2"/><rect y="42" width="46" height="2" style="fill:#34a853"/><circle cx="23" cy="43" r="3" style="fill:#34a853"/><circle cx="13" cy="29" r="7" style="fill:#34a853;opacity:0.3"/><rect y="56" width="46" height="2" style="fill:#34a853"/><circle cx="33" cy="57" r="3" style="fill:#34a853"/><rect y="28" width="46" height="2" style="fill:#34a853"/><circle cx="13" cy="29" r="3" style="fill:#34a853"/><circle cx="92.03" cy="59.97" r="10.5" transform="matrix(0.97, -0.26, 0.26, 0.97, -12.38, 25.86)" style="fill:#fff"/><circle cx="84.26" cy="67.74" r="6.5" transform="matrix(0.97, -0.26, 0.26, 0.97, -14.66, 24.12)" style="fill:#fff"/><path d="M90.53,66.06a6.45,6.45,0,0,0-8.84-4.28c.05.3.11.6.19.91a10.49,10.49,0,0,0,8.33,7.62A6.47,6.47,0,0,0,90.53,66.06Z" style="fill:#4285f4"/><circle cx="79.31" cy="72.69" r="2.5" transform="translate(-16.11 23) rotate(-15)" style="fill:#4285f4"/></g></svg>