<svg xmlns="http://www.w3.org/2000/svg" viewBox="0 0 128 128"><title>icon-128px-video-lecture_1</title><g id="BG"><rect width="128" height="128" style="fill:none"/></g><g id="art"><path d="M2,29H110a2,2,0,0,1,2,2V93a0,0,0,0,1,0,0H0a0,0,0,0,1,0,0V31A2,2,0,0,1,2,29Z" style="fill:#eff0f2"/><path d="M0,93H112a0,0,0,0,1,0,0v4a2,2,0,0,1-2,2H2a2,2,0,0,1-2-2V93A0,0,0,0,1,0,93Z" style="fill:#cdd0d5"/><circle cx="103.2" cy="61" r="24.5" style="fill:#9fc1f9"/><circle cx="103.39" cy="61" r="24.61" transform="translate(-0.75 1.29) rotate(-0.71)" style="fill:none"/><circle cx="103.39" cy="61" r="24.61" transform="translate(-0.75 1.29) rotate(-0.71)" style="fill:none"/><path d="M103.76,85.49a24.38,24.38,0,0,0,14.16-4.9L108.35,77Z" style="fill:#ffcc80"/><path d="M89.12,81A24.38,24.38,0,0,0,103.2,85.5h.43l-4.8-8.4Z" style="fill:#ffcc80"/><path d="M108.4,80.66s.06,4.88-4.7,4.94-4.82-4.82-4.82-4.82l-.16-12.73,9.51-.12Z" style="fill:#ffcc80"/><path d="M107.19,62.59c-.18,2.35,1.58,3.79,3.93,4s3.18-1.06,3.36-3.42-.35-3.7-2.71-3.87S107.37,60.24,107.19,62.59Z" style="fill:#ffcc80"/><path d="M99.64,62.68c.23,2.35-1.49,3.83-3.83,4.06s-3.21-1-3.44-3.33.26-3.7,2.61-3.94S99.4,60.34,99.64,62.68Z" style="fill:#ffcc80"/><path d="M94.15,62.46c-.09-7.44,0-15.91,9.07-16h0c9.08-.11,9.37,8.35,9.46,15.79.07,5.8-3.31,12.89-9.11,13h0C97.77,75.26,94.22,68.25,94.15,62.46Z" style="fill:#ffe0b2"/><circle cx="99.01" cy="61.36" r="0.79" transform="translate(-0.75 1.23) rotate(-0.71)"/><circle cx="107.78" cy="61.25" r="0.79" transform="translate(-0.75 1.34) rotate(-0.71)"/><path d="M97.28,58.85a4,4,0,0,1,1.6-.61,4.17,4.17,0,0,1,1.88.2c.42.14.4.42-.06.42a11.21,11.21,0,0,0-3.45.4C96.8,59.37,96.79,59.16,97.28,58.85Z"/><path d="M109.45,58.7a4,4,0,0,0-1.61-.57,4.17,4.17,0,0,0-1.87.25c-.42.15-.39.43.07.42a11.21,11.21,0,0,1,3.46.32C109.95,59.21,109.95,59,109.45,58.7Z"/><path d="M103.47,66.9a1.9,1.9,0,0,0,1.48-.74.21.21,0,0,0-.17-.34l-2.64,0a.21.21,0,0,0-.16.34A1.9,1.9,0,0,0,103.47,66.9Z" style="fill:#f59331"/><path d="M106.06,69.39c0,.39-1,1-2.55,1s-2.57-.54-2.57-.93,1.15,0,2.56,0S106.06,69,106.06,69.39Z" style="fill:#f59331"/><path d="M98.83,77.09,96,78.22c0,.16,0,.31,0,.47A11,11,0,0,1,94.77,84a24.6,24.6,0,0,0,17.81-.22,11,11,0,0,1-1.44-5.32c0-.16,0-.31,0-.47L108.35,77h0s1,4.41-4.7,4.48h0C97.95,81.52,98.83,77.09,98.83,77.09Z" style="fill:#292d33"/><circle cx="56" cy="61" r="13" style="fill:#cdd0d5"/><circle cx="56" cy="96" r="5" style="fill:#4285f4"/><rect x="2" y="95" width="54" height="2" style="fill:#4285f4"/><rect x="4" y="39" width="26" height="4" style="fill:#cdd0d5"/><rect x="4" y="47" width="22" height="4" style="fill:#cdd0d5"/><rect x="4" y="55" width="22" height="4" style="fill:#cdd0d5"/><polygon points="61.71 61 57.35 63.51 53 66.03 53 61 53 55.97 57.35 58.49 61.71 61" style="fill:#292d33"/><path d="M94.79,66.74c-1.59-.19-2.23-1.36-2.43-3.33s.15-3.33,1.78-3.79q0-.3,0-.59a23,23,0,0,0,1.69-7.62,39.53,39.53,0,0,0,5,2.62c4.63,2.16,9,3.66,11.65,3.81q.05.77.08,1.55c1.64.42,2,1.7,1.87,3.74s-.76,3.16-2.35,3.39a13.7,13.7,0,0,1-3.71,6.64L119.1,73s-2.5-15.84-4.35-20.43-3.66-9.65-11.58-9.55-9.6,5.2-11.34,9.84S88,73.42,88,73.42l10.68-.13A13.7,13.7,0,0,1,94.79,66.74Z" style="fill:#df382b"/><path d="M94.44,59.92c0,3.37.68,5.08,4,5s4-1.77,3.92-5.14a11.08,11.08,0,0,0-8,.1Z" style="fill:none;stroke:#231f20;stroke-miterlimit:10;stroke-width:0.615146986036442px"/><path d="M112.32,59.7c0,3.37-.55,5.1-3.92,5.14s-4-1.67-4-5a11.08,11.08,0,0,1,8-.1Z" style="fill:none;stroke:#231f20;stroke-miterlimit:10;stroke-width:0.615146986036442px"/><path d="M104.36,59.8a2.13,2.13,0,0,0-1.95,0" style="fill:none;stroke:#231f20;stroke-miterlimit:10;stroke-width:0.615146986036442px"/></g></svg>