<svg xmlns="http://www.w3.org/2000/svg" xmlns:xlink="http://www.w3.org/1999/xlink" viewBox="0 0 128 128"><defs><linearGradient id="linear-gradient" x1="-31.4" y1="569.93" x2="21.77" y2="569.93" gradientTransform="matrix(1, 0, 0.02, 0.81, 37.6, -338.11)" gradientUnits="userSpaceOnUse"><stop offset="0" stop-color="#292d33" stop-opacity="0"/><stop offset="0.26" stop-color="#292d33" stop-opacity="0.1"/><stop offset="1" stop-color="#292d33" stop-opacity="0.3"/></linearGradient></defs><title>icon-128px-globe_2</title><g id="BG"><polygon points="17.94 125.13 71.06 125.13 71.15 127 18.03 127 17.94 125.13" style="fill:url(#linear-gradient)"/><rect width="128" height="128" style="fill:none"/><line x1="76.66" y1="1" x2="43.02" y2="104.53" style="fill:none;stroke:#959ca5;stroke-linecap:round;stroke-miterlimit:10;stroke-width:1.757499457389252px"/><circle cx="59.84" cy="52.77" r="41.58" transform="translate(-8.83 93.37) rotate(-72)" style="fill:#eff0f2"/><path d="M40.36,99l4.06,1.19A49.89,49.89,0,1,0,75.26,5.31L71,3.78" style="fill:none;stroke:#cdd0d5;stroke-linecap:square;stroke-miterlimit:10;stroke-width:3.514998914778504px"/><line x1="62.66" y1="102.43" x2="62.66" y2="112.26" style="fill:none;stroke:#959ca5;stroke-miterlimit:10;stroke-width:1.757499457389252px"/><circle cx="62.66" cy="102.43" r="4.16" style="fill:#babfc5"/><path d="M62.66,111.12h0a2.76,2.76,0,0,0-2.55,2.39l-1.42,7.06h7.94l-1.42-7.06A2.76,2.76,0,0,0,62.66,111.12Z" style="fill:#babfc5"/><path d="M78,124l-5.07-1.91a29,29,0,0,0-10.24-1.87h0a29,29,0,0,0-10.24,1.87L47.35,124l-6,3H84Z" style="fill:#cdd0d5"/><path d="M57.54,83.52A41.59,41.59,0,0,1,38.83,16.9,41.58,41.58,0,1,0,91.4,79.85,41.47,41.47,0,0,1,57.54,83.52Z" style="fill:#dfe1e5"/><path d="M62.92,94.23A41.71,41.71,0,0,0,90.28,81.09a6.2,6.2,0,0,0-3-4l-7.93-4.42a5.41,5.41,0,0,1-2.54-6.59l.6-1.68a5.06,5.06,0,0,0-1.89-5.86l-5.65-3.9a1.63,1.63,0,0,1,.95-3l9.55.15a6.23,6.23,0,0,0,6.32-6.44v-.15a7.17,7.17,0,0,0-3.36-5.83l-6-3.72a3.92,3.92,0,0,1-1.46-5l0-.07a6,6,0,0,1,3.2-3l4.63-1.8a1,1,0,0,0,0-1.77l-4.35-1.61a2.64,2.64,0,0,1-1.33-3.87l1.48-2.39a41.46,41.46,0,0,0-28.43-4,7.8,7.8,0,0,0-5.56,6.12c-.63,2.77,3.35,7.36,3.35,7.36a4.07,4.07,0,0,1,.71,4.86l-3.17,5.75a8.72,8.72,0,0,0,2.76,11.44L67.76,60.18a5.06,5.06,0,0,1,1.78,6.28l-1.32,2.91A8.63,8.63,0,0,0,69.59,78a6.81,6.81,0,0,1-.08,9.28Z" style="fill:#cdd0d5"/><circle cx="59.84" cy="52.77" r="41.58" transform="translate(-8.83 93.37) rotate(-72)" style="fill:none"/><path d="M30.71,71.8l-5.34-1.68a2.57,2.57,0,0,1-1.5-3.66l4.28-8.11a9.06,9.06,0,0,0-.46-9.24l-1-1.49a8.34,8.34,0,0,0-7.49-3.7,41.61,41.61,0,0,0,17,43l.93-3.19A9.68,9.68,0,0,0,30.71,71.8Z" style="fill:#cdd0d5"/></g><g id="art"><polygon points="21.22 94.82 15.35 93.6 19.4 74.07 20.77 72.36 21.28 69.95 25.2 70.76 24.7 73.13 25.27 75.29 21.22 94.82" style="fill:#4285f4"/><polygon points="20.8 72.26 24.72 73.07 25.2 70.76 21.29 69.95 20.8 72.26" style="opacity:0.1"/><circle cx="29" cy="54" r="3" style="fill:#f4b402"/><circle cx="78" cy="36" r="3" style="fill:#e4594e"/><circle cx="86" cy="75" r="3" style="fill:#109d58"/><path d="M26,47A10,10,0,1,1,16,57,10,10,0,0,1,26,47m0-4A14,14,0,1,0,40,57,14,14,0,0,0,26,43Z" style="fill:#4285f4"/></g></svg>